<svg width="1500" height="122" viewBox="0 0 1500 122" fill="none" xmlns="http://www.w3.org/2000/svg">
<rect y="22" width="1500" height="100" fill="#001726"/>
<path d="M477.903 21.9517C477.903 16.1297 475.591 10.5462 471.474 6.4295C467.357 2.31276 461.774 4.39545e-07 455.952 0C450.13 -4.39545e-07 444.546 2.31276 440.43 6.4295C436.313 10.5462 434 16.1297 434 21.9517L455.952 21.9517H477.903Z" fill="#001726"/>
<path d="M434 21.9517C434 27.7736 436.313 33.3571 440.429 37.4739C444.546 41.5906 450.13 43.9034 455.952 43.9034C461.774 43.9034 467.357 41.5906 471.474 37.4739C475.591 33.3571 477.903 27.7736 477.903 21.9517L455.952 21.9517L434 21.9517Z" fill="#E7E7E7"/>
<path d="M771.807 22.1853C771.807 16.3634 769.494 10.7799 765.377 6.66314C761.26 2.5464 755.677 0.233643 749.855 0.233643C744.033 0.233642 738.45 2.5464 734.333 6.66314C730.216 10.7799 727.903 16.3634 727.903 22.1853L749.855 22.1853H771.807Z" fill="#001726"/>
<path d="M727.903 22.1853C727.903 28.0073 730.216 33.5908 734.333 37.7075C738.45 41.8243 744.033 44.137 749.855 44.137C755.677 44.137 761.26 41.8243 765.377 37.7075C769.494 33.5908 771.807 28.0073 771.807 22.1853L749.855 22.1853L727.903 22.1853Z" fill="#E7E7E7"/>
<path d="M1065.71 21.9517C1065.71 16.1297 1063.4 10.5462 1059.28 6.4295C1055.16 2.31276 1049.58 4.39545e-07 1043.76 0C1037.94 -4.39545e-07 1032.35 2.31276 1028.24 6.4295C1024.12 10.5462 1021.81 16.1297 1021.81 21.9517L1043.76 21.9517H1065.71Z" fill="#001726"/>
<path d="M1021.81 21.9517C1021.81 27.7736 1024.12 33.3571 1028.24 37.4739C1032.35 41.5906 1037.94 43.9034 1043.76 43.9034C1049.58 43.9034 1055.16 41.5906 1059.28 37.4739C1063.4 33.3571 1065.71 27.7736 1065.71 21.9517L1043.76 21.9517L1021.81 21.9517Z" fill="#E7E7E7"/>
</svg>
