<svg width="44" height="44" viewBox="0 0 44 44" fill="none" xmlns="http://www.w3.org/2000/svg">
<path d="M43.9034 21.9517C43.9034 16.1297 41.5906 10.5462 37.4739 6.4295C33.3571 2.31276 27.7736 4.39545e-07 21.9517 0C16.1297 -4.39545e-07 10.5462 2.31276 6.4295 6.4295C2.31276 10.5462 8.7909e-07 16.1297 0 21.9517L21.9517 21.9517H43.9034Z" fill="#001726"/>
<path d="M0 21.9517C-5.08971e-07 27.7736 2.31276 33.3571 6.4295 37.4739C10.5462 41.5906 16.1297 43.9034 21.9517 43.9034C27.7736 43.9034 33.3571 41.5906 37.4739 37.4739C41.5906 33.3571 43.9034 27.7736 43.9034 21.9517L21.9517 21.9517L0 21.9517Z" fill="#E7E7E7"/>
</svg>
